# MagicaVoxel @ Ephtracy

# group
o 

# material
mtllib Player-0.mtl
usemtl palette

# normals
vn -1 0 0
vn 1 0 0
vn 0 0 1
vn 0 0 -1
vn 0 -1 0
vn 0 1 0

# texcoords
vt 0.775391 0.5
vt 0.939453 0.5
vt 0.970703 0.5
vt 0.974609 0.5
vt 0.978516 0.5
vt 0.994141 0.5

# verts
v -0.6 0.1 0.5
v -0.6 0.1 -0.5
v -0.6 0.4 -0.4
v -0.6 0.4 -0.5
v -0.6 0.5 0.5
v -0.6 0.5 -0.4
v -0.6 1 0.5
v -0.6 1 -0.5
v 0.4 0.1 0.5
v 0.4 0.1 -0.5
v 0.4 0.4 -0.4
v 0.4 0.4 -0.5
v 0.4 0.5 0.5
v 0.4 0.5 -0.4
v 0.4 1 0.5
v 0.4 1 -0.5
v -0.6 0.1 0.5
v -0.6 0.5 0.5
v -0.6 1 0.5
v -0.5 0.5 0.5
v -0.5 0.7 0.5
v -0.4 0.5 0.5
v -0.4 0.6 0.5
v -0.3 0.1 0.5
v -0.3 0.3 0.5
v -0.3 0.5 0.5
v -0.3 0.6 0.5
v -0.3 0.7 0.5
v -0.3 0.8 0.5
v -0.2 0.2 0.5
v -0.2 0.3 0.5
v -0.2 0.4 0.5
v -0.2 0.5 0.5
v -0.2 0.6 0.5
v -3.72529e-008 0.2 0.5
v -3.72529e-008 0.3 0.5
v -3.72529e-008 0.4 0.5
v -3.72529e-008 0.5 0.5
v -3.72529e-008 0.6 0.5
v 0.1 0.1 0.5
v 0.1 0.3 0.5
v 0.1 0.5 0.5
v 0.1 0.6 0.5
v 0.1 0.7 0.5
v 0.1 0.8 0.5
v 0.2 0.5 0.5
v 0.2 0.6 0.5
v 0.3 0.5 0.5
v 0.3 0.7 0.5
v 0.4 0.1 0.5
v 0.4 0.5 0.5
v 0.4 1 0.5
v -0.6 0.1 -0.5
v -0.6 0.4 -0.5
v -0.6 1 -0.5
v -0.5 0.3 -0.5
v -0.5 0.4 -0.5
v 0.3 0.3 -0.5
v 0.3 0.4 -0.5
v 0.4 0.1 -0.5
v 0.4 0.4 -0.5
v 0.4 1 -0.5
v -0.6 0.1 0.5
v -0.3 0.1 0.5
v 0.1 0.1 0.5
v 0.4 0.1 0.5
v -0.3 0.1 0.4
v 0.1 0.1 0.4
v -0.6 0.1 -0.5
v 0.4 0.1 -0.5
v -0.6 1 0.5
v 0.4 1 0.5
v -0.6 1 -0.5
v 0.4 1 -0.5

# faces
f 3/6/1 2/6/1 1/6/1
f 4/6/1 2/6/1 3/6/1
f 5/6/1 3/6/1 1/6/1
f 6/3/1 4/3/1 3/3/1
f 6/6/1 3/6/1 5/6/1
f 7/3/1 6/3/1 5/3/1
f 8/3/1 4/3/1 6/3/1
f 8/3/1 6/3/1 7/3/1
f 9/6/2 10/6/2 11/6/2
f 11/6/2 10/6/2 12/6/2
f 9/6/2 11/6/2 13/6/2
f 11/3/2 12/3/2 14/3/2
f 13/6/2 11/6/2 14/6/2
f 13/3/2 14/3/2 15/3/2
f 14/3/2 12/3/2 16/3/2
f 15/3/2 14/3/2 16/3/2
f 20/6/3 18/6/3 17/6/3
f 20/3/3 19/3/3 18/3/3
f 21/3/3 19/3/3 20/3/3
f 22/6/3 20/6/3 17/6/3
f 22/6/3 21/6/3 20/6/3
f 23/6/3 21/6/3 22/6/3
f 24/6/3 22/6/3 17/6/3
f 25/6/3 22/6/3 24/6/3
f 26/4/3 23/4/3 22/4/3
f 26/6/3 22/6/3 25/6/3
f 27/6/3 21/6/3 23/6/3
f 27/4/3 23/4/3 26/4/3
f 28/3/3 19/3/3 21/3/3
f 28/6/3 21/6/3 27/6/3
f 29/3/3 19/3/3 28/3/3
f 30/2/3 25/2/3 24/2/3
f 31/6/3 26/6/3 25/6/3
f 31/2/3 25/2/3 30/2/3
f 32/6/3 26/6/3 31/6/3
f 33/5/3 27/5/3 26/5/3
f 33/6/3 26/6/3 32/6/3
f 34/6/3 28/6/3 27/6/3
f 34/5/3 27/5/3 33/5/3
f 34/6/3 29/6/3 28/6/3
f 35/2/3 30/2/3 24/2/3
f 35/6/3 31/6/3 30/6/3
f 36/2/3 32/2/3 31/2/3
f 36/6/3 31/6/3 35/6/3
f 37/6/3 33/6/3 32/6/3
f 37/2/3 32/2/3 36/2/3
f 37/6/3 34/6/3 33/6/3
f 38/6/3 34/6/3 37/6/3
f 39/6/3 29/6/3 34/6/3
f 39/6/3 34/6/3 38/6/3
f 40/2/3 35/2/3 24/2/3
f 40/2/3 36/2/3 35/2/3
f 41/6/3 38/6/3 37/6/3
f 41/2/3 36/2/3 40/2/3
f 41/6/3 37/6/3 36/6/3
f 42/5/3 39/5/3 38/5/3
f 42/6/3 38/6/3 41/6/3
f 43/6/3 29/6/3 39/6/3
f 43/5/3 39/5/3 42/5/3
f 44/6/3 29/6/3 43/6/3
f 45/3/3 19/3/3 29/3/3
f 45/6/3 29/6/3 44/6/3
f 46/6/3 42/6/3 41/6/3
f 46/6/3 41/6/3 40/6/3
f 46/4/3 43/4/3 42/4/3
f 47/6/3 44/6/3 43/6/3
f 47/4/3 43/4/3 46/4/3
f 48/6/3 46/6/3 40/6/3
f 48/6/3 47/6/3 46/6/3
f 49/6/3 44/6/3 47/6/3
f 49/6/3 47/6/3 48/6/3
f 49/3/3 45/3/3 44/3/3
f 50/6/3 48/6/3 40/6/3
f 51/3/3 49/3/3 48/3/3
f 51/6/3 48/6/3 50/6/3
f 52/3/3 19/3/3 45/3/3
f 52/3/3 49/3/3 51/3/3
f 52/3/3 45/3/3 49/3/3
f 53/6/4 54/6/4 56/6/4
f 54/3/4 55/3/4 57/3/4
f 56/6/4 54/6/4 57/6/4
f 53/6/4 56/6/4 58/6/4
f 56/3/4 57/3/4 58/3/4
f 57/3/4 55/3/4 59/3/4
f 58/3/4 57/3/4 59/3/4
f 53/6/4 58/6/4 60/6/4
f 58/6/4 59/6/4 60/6/4
f 59/3/4 55/3/4 61/3/4
f 60/6/4 59/6/4 61/6/4
f 61/3/4 55/3/4 62/3/4
f 67/6/5 64/6/5 63/6/5
f 67/2/5 65/2/5 64/2/5
f 68/6/5 66/6/5 65/6/5
f 68/2/5 65/2/5 67/2/5
f 69/6/5 67/6/5 63/6/5
f 69/6/5 68/6/5 67/6/5
f 70/6/5 66/6/5 68/6/5
f 70/6/5 68/6/5 69/6/5
f 71/3/6 72/3/6 73/3/6
f 73/3/6 72/3/6 74/3/6
